<svg xmlns="http://www.w3.org/2000/svg" xmlns:xlink="http://www.w3.org/1999/xlink" width="1080" zoomAndPan="magnify" viewBox="0 0 810 809.999993" height="1080" preserveAspectRatio="xMidYMid meet" version="1.0"><defs><clipPath id="45af783d06"><path d="M 195.914062 646.683594 L 567.988281 646.683594 L 567.988281 729 L 195.914062 729 Z M 195.914062 646.683594 " clip-rule="nonzero"/></clipPath><clipPath id="f4baa6f6b0"><path d="M 162.988281 642.566406 L 253.535156 642.566406 L 253.535156 733.117188 L 162.988281 733.117188 Z M 162.988281 642.566406 " clip-rule="nonzero"/></clipPath><clipPath id="6cb23242e6"><path d="M 208.261719 642.566406 C 183.257812 642.566406 162.988281 662.835938 162.988281 687.839844 C 162.988281 712.847656 183.257812 733.117188 208.261719 733.117188 C 233.265625 733.117188 253.535156 712.847656 253.535156 687.839844 C 253.535156 662.835938 233.265625 642.566406 208.261719 642.566406 Z M 208.261719 642.566406 " clip-rule="nonzero"/></clipPath><clipPath id="38e5073539"><path d="M 240.035156 70.464844 L 324.988281 70.464844 L 324.988281 572.925781 L 240.035156 572.925781 Z M 240.035156 70.464844 " clip-rule="nonzero"/></clipPath></defs><g clip-path="url(#45af783d06)"><path fill="#dad5b7" d="M 195.914062 646.683594 L 567.988281 646.683594 L 567.988281 729 L 195.914062 729 Z M 195.914062 646.683594 " fill-opacity="1" fill-rule="nonzero"/></g><g clip-path="url(#f4baa6f6b0)"><g clip-path="url(#6cb23242e6)"><path fill="#dad5b7" d="M 162.988281 642.566406 L 253.535156 642.566406 L 253.535156 733.117188 L 162.988281 733.117188 Z M 162.988281 642.566406 " fill-opacity="1" fill-rule="nonzero"/></g></g><g clip-path="url(#38e5073539)"><path fill="#243757" d="M 240.035156 70.464844 L 324.988281 70.464844 L 324.988281 572.925781 L 240.035156 572.925781 Z M 240.035156 70.464844 " fill-opacity="1" fill-rule="nonzero"/></g><path fill="#665e52" d="M 729 567 L 729 81 C 729 79.675781 728.96875 78.347656 728.902344 77.027344 C 728.835938 75.703125 728.738281 74.378906 728.609375 73.0625 C 728.480469 71.742188 728.316406 70.425781 728.125 69.113281 C 727.929688 67.804688 727.703125 66.496094 727.445312 65.199219 C 727.183594 63.898438 726.894531 62.605469 726.574219 61.320312 C 726.25 60.03125 725.898438 58.753906 725.511719 57.488281 C 725.128906 56.21875 724.710938 54.960938 724.265625 53.710938 C 723.820312 52.464844 723.339844 51.226562 722.835938 50.003906 C 722.328125 48.777344 721.789062 47.566406 721.222656 46.367188 C 720.65625 45.167969 720.058594 43.984375 719.433594 42.816406 C 718.8125 41.648438 718.15625 40.496094 717.476562 39.359375 C 716.792969 38.21875 716.085938 37.101562 715.347656 36 C 714.613281 34.898438 713.847656 33.8125 713.058594 32.75 C 712.269531 31.683594 711.453125 30.640625 710.613281 29.613281 C 709.773438 28.589844 708.90625 27.585938 708.015625 26.605469 C 707.125 25.621094 706.214844 24.660156 705.277344 23.722656 C 704.339844 22.785156 703.378906 21.875 702.394531 20.984375 C 701.414062 20.09375 700.410156 19.226562 699.386719 18.386719 C 698.359375 17.546875 697.316406 16.730469 696.25 15.941406 C 695.1875 15.152344 694.101562 14.386719 693 13.652344 C 691.898438 12.914062 690.777344 12.207031 689.640625 11.523438 C 688.503906 10.84375 687.351562 10.1875 686.183594 9.5625 C 685.015625 8.941406 683.832031 8.34375 682.632812 7.777344 C 681.433594 7.210938 680.222656 6.671875 678.996094 6.164062 C 677.773438 5.660156 676.535156 5.179688 675.289062 4.734375 C 674.039062 4.289062 672.78125 3.871094 671.511719 3.488281 C 670.246094 3.101562 668.96875 2.75 667.679688 2.425781 C 666.394531 2.105469 665.101562 1.816406 663.800781 1.554688 C 662.503906 1.296875 661.195312 1.070312 659.886719 0.875 C 658.574219 0.683594 657.257812 0.519531 655.9375 0.390625 C 654.621094 0.261719 653.296875 0.164062 651.972656 0.0976562 C 650.652344 0.03125 649.324219 0 648 0 L 162 0 C 160.675781 0 159.347656 0.03125 158.027344 0.0976562 C 156.703125 0.164062 155.378906 0.261719 154.0625 0.390625 C 152.742188 0.519531 151.425781 0.683594 150.113281 0.875 C 148.804688 1.070312 147.496094 1.296875 146.199219 1.554688 C 144.898438 1.816406 143.605469 2.105469 142.320312 2.425781 C 141.03125 2.75 139.753906 3.101562 138.488281 3.488281 C 137.21875 3.871094 135.960938 4.289062 134.710938 4.734375 C 133.464844 5.179688 132.226562 5.660156 131.003906 6.164062 C 129.777344 6.671875 128.566406 7.210938 127.367188 7.777344 C 126.167969 8.34375 124.984375 8.941406 123.816406 9.5625 C 122.648438 10.1875 121.496094 10.84375 120.359375 11.523438 C 119.21875 12.207031 118.101562 12.914062 117 13.652344 C 115.898438 14.386719 114.8125 15.152344 113.75 15.941406 C 112.683594 16.730469 111.640625 17.546875 110.613281 18.386719 C 109.589844 19.226562 108.585938 20.09375 107.605469 20.984375 C 106.621094 21.875 105.660156 22.785156 104.722656 23.722656 C 103.785156 24.660156 102.875 25.621094 101.984375 26.605469 C 101.09375 27.585938 100.226562 28.589844 99.386719 29.613281 C 98.546875 30.640625 97.730469 31.683594 96.941406 32.75 C 96.152344 33.8125 95.386719 34.898438 94.652344 36 C 93.914062 37.101562 93.207031 38.21875 92.523438 39.359375 C 91.84375 40.496094 91.1875 41.648438 90.5625 42.816406 C 89.941406 43.984375 89.34375 45.167969 88.777344 46.367188 C 88.210938 47.566406 87.671875 48.777344 87.164062 50.003906 C 86.660156 51.226562 86.179688 52.464844 85.734375 53.710938 C 85.289062 54.960938 84.871094 56.21875 84.488281 57.488281 C 84.101562 58.753906 83.75 60.03125 83.425781 61.320312 C 83.105469 62.605469 82.816406 63.898438 82.554688 65.199219 C 82.296875 66.496094 82.070312 67.804688 81.875 69.113281 C 81.683594 70.425781 81.519531 71.742188 81.390625 73.0625 C 81.261719 74.378906 81.164062 75.703125 81.097656 77.027344 C 81.03125 78.347656 81 79.675781 81 81 L 81 688.5 C 81 690.488281 81.046875 692.476562 81.144531 694.460938 C 81.242188 696.449219 81.390625 698.429688 81.585938 700.410156 C 81.78125 702.386719 82.023438 704.359375 82.316406 706.328125 C 82.605469 708.292969 82.945312 710.253906 83.335938 712.203125 C 83.722656 714.152344 84.15625 716.09375 84.640625 718.023438 C 85.125 719.949219 85.65625 721.867188 86.230469 723.769531 C 86.808594 725.671875 87.433594 727.558594 88.101562 729.433594 C 88.773438 731.304688 89.488281 733.160156 90.25 734.996094 C 91.007812 736.832031 91.816406 738.648438 92.664062 740.449219 C 93.515625 742.246094 94.410156 744.019531 95.347656 745.773438 C 96.285156 747.527344 97.265625 749.257812 98.285156 750.964844 C 99.308594 752.667969 100.371094 754.347656 101.476562 756 C 102.582031 757.65625 103.726562 759.28125 104.910156 760.878906 C 106.09375 762.472656 107.316406 764.042969 108.578125 765.578125 C 109.839844 767.117188 111.140625 768.621094 112.472656 770.09375 C 113.808594 771.566406 115.179688 773.007812 116.585938 774.414062 C 117.992188 775.820312 119.433594 777.191406 120.90625 778.527344 C 122.378906 779.859375 123.882812 781.160156 125.421875 782.421875 C 126.957031 783.683594 128.527344 784.90625 130.121094 786.089844 C 131.71875 787.273438 133.34375 788.417969 135 789.523438 C 136.652344 790.628906 138.332031 791.691406 140.035156 792.714844 C 141.742188 793.734375 143.472656 794.714844 145.226562 795.652344 C 146.980469 796.589844 148.753906 797.484375 150.550781 798.335938 C 152.347656 799.183594 154.167969 799.992188 156.003906 800.75 C 157.839844 801.511719 159.695312 802.226562 161.566406 802.898438 C 163.441406 803.566406 165.328125 804.191406 167.230469 804.769531 C 169.132812 805.34375 171.050781 805.875 172.976562 806.359375 C 174.90625 806.84375 176.847656 807.277344 178.796875 807.664062 C 180.746094 808.054688 182.707031 808.394531 184.671875 808.683594 C 186.640625 808.976562 188.613281 809.21875 190.589844 809.414062 C 192.570312 809.609375 194.550781 809.757812 196.539062 809.855469 C 198.523438 809.953125 200.511719 810 202.5 810 L 688.5 810 C 689.828125 810 691.148438 809.933594 692.46875 809.804688 C 693.789062 809.675781 695.101562 809.480469 696.402344 809.222656 C 697.703125 808.964844 698.988281 808.640625 700.257812 808.257812 C 701.527344 807.871094 702.773438 807.425781 704 806.917969 C 705.222656 806.410156 706.421875 805.84375 707.589844 805.21875 C 708.761719 804.59375 709.898438 803.910156 711 803.175781 C 712.101562 802.4375 713.167969 801.648438 714.191406 800.808594 C 715.21875 799.964844 716.199219 799.074219 717.136719 798.136719 C 718.074219 797.199219 718.964844 796.21875 719.808594 795.191406 C 720.648438 794.167969 721.4375 793.101562 722.175781 792 C 722.910156 790.898438 723.59375 789.761719 724.21875 788.589844 C 724.84375 787.421875 725.410156 786.222656 725.917969 785 C 726.425781 783.773438 726.871094 782.527344 727.257812 781.257812 C 727.640625 779.988281 727.964844 778.703125 728.222656 777.402344 C 728.480469 776.101562 728.675781 774.789062 728.804688 773.46875 C 728.933594 772.148438 729 770.828125 729 769.5 C 729 768.171875 728.933594 766.851562 728.804688 765.53125 C 728.675781 764.210938 728.480469 762.898438 728.222656 761.597656 C 727.964844 760.296875 727.640625 759.011719 727.257812 757.742188 C 726.871094 756.472656 726.425781 755.226562 725.917969 754 C 725.410156 752.777344 724.84375 751.578125 724.21875 750.410156 C 723.59375 749.238281 722.910156 748.101562 722.175781 747 C 721.4375 745.894531 720.648438 744.832031 719.808594 743.808594 C 718.964844 742.78125 718.074219 741.800781 717.136719 740.863281 C 716.199219 739.925781 715.21875 739.035156 714.191406 738.191406 C 713.167969 737.351562 712.101562 736.5625 711 735.824219 C 709.898438 735.089844 708.761719 734.40625 707.589844 733.78125 C 706.421875 733.15625 705.222656 732.589844 704 732.082031 C 702.773438 731.574219 701.527344 731.128906 700.257812 730.742188 C 698.988281 730.359375 697.703125 730.035156 696.402344 729.777344 C 695.101562 729.519531 693.789062 729.324219 692.46875 729.195312 C 691.148438 729.066406 689.828125 729 688.5 729 L 648 729 L 648 648 C 649.324219 648 650.652344 647.96875 651.972656 647.902344 C 653.296875 647.835938 654.621094 647.738281 655.9375 647.609375 C 657.257812 647.480469 658.574219 647.316406 659.886719 647.125 C 661.195312 646.929688 662.503906 646.703125 663.800781 646.445312 C 665.101562 646.183594 666.394531 645.894531 667.679688 645.574219 C 668.96875 645.25 670.246094 644.898438 671.511719 644.511719 C 672.78125 644.128906 674.039062 643.710938 675.289062 643.265625 C 676.535156 642.820312 677.773438 642.339844 678.996094 641.835938 C 680.222656 641.328125 681.433594 640.789062 682.632812 640.222656 C 683.832031 639.65625 685.015625 639.058594 686.183594 638.433594 C 687.351562 637.8125 688.503906 637.15625 689.640625 636.476562 C 690.777344 635.792969 691.898438 635.085938 693 634.347656 C 694.101562 633.613281 695.1875 632.847656 696.25 632.058594 C 697.316406 631.269531 698.359375 630.453125 699.386719 629.613281 C 700.410156 628.773438 701.414062 627.90625 702.394531 627.015625 C 703.378906 626.125 704.339844 625.214844 705.277344 624.277344 C 706.214844 623.339844 707.125 622.378906 708.015625 621.394531 C 708.90625 620.414062 709.773438 619.410156 710.613281 618.386719 C 711.453125 617.359375 712.269531 616.316406 713.058594 615.25 C 713.847656 614.1875 714.613281 613.101562 715.347656 612 C 716.085938 610.898438 716.792969 609.777344 717.476562 608.640625 C 718.15625 607.503906 718.8125 606.351562 719.4375 605.183594 C 720.058594 604.015625 720.65625 602.832031 721.222656 601.632812 C 721.789062 600.433594 722.328125 599.222656 722.835938 597.996094 C 723.339844 596.773438 723.820312 595.535156 724.265625 594.289062 C 724.710938 593.039062 725.128906 591.78125 725.511719 590.511719 C 725.898438 589.246094 726.25 587.96875 726.574219 586.679688 C 726.894531 585.394531 727.183594 584.101562 727.445312 582.800781 C 727.703125 581.503906 727.929688 580.195312 728.125 578.886719 C 728.316406 577.574219 728.480469 576.257812 728.609375 574.9375 C 728.738281 573.621094 728.835938 572.296875 728.902344 570.972656 C 728.96875 569.652344 729 568.324219 729 567 Z M 243 81 L 324 81 L 324 567 L 243 567 Z M 567 729 L 202.5 729 C 201.171875 729 199.851562 728.933594 198.53125 728.804688 C 197.210938 728.675781 195.898438 728.480469 194.597656 728.222656 C 193.296875 727.964844 192.011719 727.640625 190.742188 727.257812 C 189.472656 726.871094 188.226562 726.425781 187 725.917969 C 185.777344 725.410156 184.578125 724.84375 183.410156 724.21875 C 182.238281 723.59375 181.101562 722.910156 180 722.175781 C 178.898438 721.4375 177.832031 720.648438 176.808594 719.808594 C 175.78125 718.964844 174.800781 718.074219 173.863281 717.136719 C 172.925781 716.199219 172.035156 715.21875 171.191406 714.191406 C 170.351562 713.167969 169.5625 712.101562 168.824219 711 C 168.089844 709.898438 167.40625 708.761719 166.78125 707.589844 C 166.15625 706.421875 165.589844 705.222656 165.082031 704 C 164.574219 702.773438 164.128906 701.527344 163.742188 700.257812 C 163.359375 698.988281 163.035156 697.703125 162.777344 696.402344 C 162.519531 695.101562 162.324219 693.789062 162.195312 692.46875 C 162.066406 691.148438 162 689.828125 162 688.5 C 162 687.171875 162.066406 685.851562 162.195312 684.53125 C 162.324219 683.210938 162.519531 681.898438 162.777344 680.597656 C 163.035156 679.296875 163.359375 678.011719 163.742188 676.742188 C 164.128906 675.472656 164.574219 674.226562 165.082031 673 C 165.589844 671.777344 166.15625 670.578125 166.78125 669.410156 C 167.40625 668.238281 168.089844 667.101562 168.824219 666 C 169.5625 664.898438 170.351562 663.832031 171.191406 662.808594 C 172.035156 661.78125 172.925781 660.800781 173.863281 659.863281 C 174.800781 658.925781 175.78125 658.035156 176.808594 657.191406 C 177.832031 656.351562 178.898438 655.5625 180 654.824219 C 181.101562 654.089844 182.238281 653.40625 183.410156 652.78125 C 184.578125 652.15625 185.777344 651.589844 187 651.082031 C 188.226562 650.574219 189.472656 650.128906 190.742188 649.742188 C 192.011719 649.359375 193.296875 649.035156 194.597656 648.777344 C 195.898438 648.519531 197.210938 648.324219 198.53125 648.195312 C 199.851562 648.066406 201.171875 648 202.5 648 L 567 648 Z M 567 729 " fill-opacity="1" fill-rule="nonzero"/><path fill="#7d1a0c" d="M 606.617188 188.078125 C 611.121094 195.660156 615.914062 202.972656 620.027344 210.6875 C 623.363281 216.9375 626.40625 223.320312 627.875 230.304688 C 629.796875 239.425781 628.304688 248.09375 623.714844 256.125 C 617.703125 266.644531 608.628906 273.085938 596.703125 275.308594 C 578.96875 278.617188 560.925781 268.613281 554.160156 251.878906 C 552.03125 246.609375 551.015625 241.152344 551.316406 235.484375 C 551.554688 230.996094 552.800781 226.714844 554.410156 222.535156 C 557.542969 214.417969 561.835938 206.902344 566.398438 199.535156 C 572.492188 189.691406 578.207031 179.632812 583.996094 169.617188 C 585.773438 166.539062 587.542969 163.457031 589.324219 160.378906 C 589.488281 160.097656 589.59375 159.738281 590.175781 159.621094 C 595.625 169.050781 601.101562 178.527344 606.617188 188.078125 Z M 606.617188 188.078125 " fill-opacity="1" fill-rule="nonzero"/><path fill="#7d1a0c" d="M 538.128906 304.3125 C 542.632812 311.890625 547.425781 319.203125 551.542969 326.917969 C 554.875 333.167969 557.917969 339.550781 559.390625 346.535156 C 561.308594 355.65625 559.816406 364.324219 555.226562 372.355469 C 549.21875 382.875 540.140625 389.316406 528.214844 391.539062 C 510.480469 394.847656 492.4375 384.847656 485.671875 368.109375 C 483.542969 362.839844 482.527344 357.382812 482.828125 351.71875 C 483.066406 347.226562 484.3125 342.945312 485.925781 338.765625 C 489.054688 330.648438 493.347656 323.132812 497.910156 315.765625 C 504.003906 305.925781 509.71875 295.867188 515.507812 285.847656 C 517.285156 282.769531 519.054688 279.6875 520.839844 276.613281 C 521 276.332031 521.105469 275.96875 521.6875 275.851562 C 527.136719 285.285156 532.613281 294.761719 538.128906 304.3125 Z M 538.128906 304.3125 " fill-opacity="1" fill-rule="nonzero"/><path fill="#7d1a0c" d="M 490.386719 130.421875 C 494.890625 138 499.683594 145.3125 503.796875 153.027344 C 507.132812 159.277344 510.175781 165.660156 511.644531 172.644531 C 513.566406 181.765625 512.070312 190.433594 507.484375 198.46875 C 501.472656 208.984375 492.398438 215.425781 480.472656 217.648438 C 462.738281 220.957031 444.691406 210.957031 437.929688 194.21875 C 435.800781 188.949219 434.78125 183.492188 435.085938 177.828125 C 435.324219 173.335938 436.570312 169.054688 438.179688 164.878906 C 441.308594 156.757812 445.605469 149.242188 450.167969 141.875 C 456.257812 132.035156 461.976562 121.976562 467.765625 111.957031 C 469.542969 108.878906 471.3125 105.796875 473.09375 102.722656 C 473.257812 102.441406 473.363281 102.082031 473.945312 101.964844 C 479.394531 111.394531 484.871094 120.871094 490.386719 130.421875 Z M 490.386719 130.421875 " fill-opacity="1" fill-rule="nonzero"/></svg>